<?xml version="1.0" encoding="UTF-8" standalone="no"?>
<svg
   xmlns:dc="http://purl.org/dc/elements/1.1/"
   xmlns:cc="http://creativecommons.org/ns#"
   xmlns:rdf="http://www.w3.org/1999/02/22-rdf-syntax-ns#"
   xmlns:svg="http://www.w3.org/2000/svg"
   xmlns="http://www.w3.org/2000/svg"
   viewBox="0 0 434.64572 75.59053"
   height="75.59053"
   width="434.64572"
   xml:space="preserve"
   version="1.1"
   id="svg2"><metadata
     id="metadata8"><rdf:RDF><cc:Work
         rdf:about=""><dc:format>image/svg+xml</dc:format><dc:type
           rdf:resource="http://purl.org/dc/dcmitype/StillImage" /></cc:Work></rdf:RDF></metadata><defs
     id="defs6" /><g
     transform="matrix(1.3333333,0,0,-1.3333333,0,75.590533)"
     id="g10"><g
       id="g12"><path
         id="path14"
         style="fill:none;stroke:#000000;stroke-width:0.7087;stroke-linecap:butt;stroke-linejoin:miter;stroke-miterlimit:22.92558479;stroke-dasharray:none;stroke-opacity:1"
         d="m 14.1738,31.1811 0,-5.6693" /><path
         id="path16"
         style="fill:none;stroke:#000000;stroke-width:0.7087;stroke-linecap:butt;stroke-linejoin:miter;stroke-miterlimit:22.92558479;stroke-dasharray:none;stroke-opacity:1"
         d="m 70.8661,31.1811 0,-5.6693" /><path
         id="path18"
         style="fill:none;stroke:#000000;stroke-width:0.7087;stroke-linecap:butt;stroke-linejoin:miter;stroke-miterlimit:22.92558479;stroke-dasharray:none;stroke-opacity:1"
         d="m 127.5596,31.1811 0,-5.6693" /><path
         id="path20"
         style="fill:none;stroke:#000000;stroke-width:0.7087;stroke-linecap:butt;stroke-linejoin:miter;stroke-miterlimit:22.92558479;stroke-dasharray:none;stroke-opacity:1"
         d="m 99.2132,31.1811 0,-5.6693" /><path
         id="path22"
         style="fill:none;stroke:#000000;stroke-width:0.7087;stroke-linecap:butt;stroke-linejoin:miter;stroke-miterlimit:22.92558479;stroke-dasharray:none;stroke-opacity:1"
         d="m 155.9061,31.1811 0,-5.6693" /><path
         id="path24"
         style="fill:none;stroke:#000000;stroke-width:0.7087;stroke-linecap:butt;stroke-linejoin:miter;stroke-miterlimit:22.92558479;stroke-dasharray:none;stroke-opacity:1"
         d="m 184.2525,31.1811 0,-5.6693" /><path
         id="path26"
         style="fill:none;stroke:#000000;stroke-width:0.7087;stroke-linecap:butt;stroke-linejoin:miter;stroke-miterlimit:22.92558479;stroke-dasharray:none;stroke-opacity:1"
         d="m 212.599,31.1811 0,-5.6693" /><path
         id="path28"
         style="fill:none;stroke:#000000;stroke-width:0.7087;stroke-linecap:butt;stroke-linejoin:miter;stroke-miterlimit:22.92558479;stroke-dasharray:none;stroke-opacity:1"
         d="m 240.9454,31.1811 0,-5.6693" /><path
         id="path30"
         style="fill:none;stroke:#000000;stroke-width:0.7087;stroke-linecap:butt;stroke-linejoin:miter;stroke-miterlimit:22.92558479;stroke-dasharray:none;stroke-opacity:1"
         d="m 42.5203,31.1811 0,-5.6693" /><path
         id="path32"
         style="fill:none;stroke:#000000;stroke-width:0.7087;stroke-linecap:butt;stroke-linejoin:miter;stroke-miterlimit:22.92558479;stroke-dasharray:none;stroke-opacity:1"
         d="m 269.2919,31.1811 0,-5.6693" /><path
         id="path34"
         style="fill:none;stroke:#000000;stroke-width:0.7087;stroke-linecap:butt;stroke-linejoin:miter;stroke-miterlimit:22.92558479;stroke-dasharray:none;stroke-opacity:1"
         d="m 297.6384,31.1811 0,-5.6693" /></g><path
       id="path36"
       style="fill:#000000;fill-opacity:1;fill-rule:nonzero;stroke:none"
       d="m 307.241,10.9032 c 0,0.28 0.0867,0.5267 0.2568,0.7398 0.1701,0.2135 0.3901,0.3201 0.6568,0.3201 0.1899,0 0.3464,-0.0633 0.4666,-0.19 0.1199,-0.1267 0.18,-0.2831 0.18,-0.47 0,-0.4532 -0.2466,-0.7667 -0.7432,-0.9399 0.2965,-0.1735 0.5765,-0.26 0.8433,-0.26 0.223,0 0.43,0.0465 0.6199,0.1401 0.1899,0.0932 0.36,0.2466 0.5134,0.4598 0.1533,0.2134 0.2831,0.4235 0.39,0.6301 0.1032,0.2066 0.2066,0.5065 0.3064,0.9034 0.1001,0.3932 0.1834,0.7265 0.2534,0.9998 0.0667,0.2701 0.1667,0.6636 0.2968,1.1735 0.1267,0.5134 0.2265,0.9099 0.2999,1.1934 0.1602,0.7067 0.2401,1.1599 0.2401,1.3598 0,0.3866 -0.0932,0.6967 -0.2834,0.93 -0.19,0.2333 -0.4468,0.3501 -0.7699,0.3501 -0.4502,0 -0.8867,-0.2166 -1.3034,-0.65 -0.4167,-0.4334 -0.7466,-0.9901 -0.9833,-1.6701 -0.0134,-0.0267 -0.0267,-0.0667 -0.04,-0.12 -0.0133,-0.0532 -0.0266,-0.0898 -0.04,-0.1099 -0.0133,-0.0199 -0.0266,-0.0533 -0.0467,-0.1001 -0.0199,-0.0465 -0.04,-0.0799 -0.0667,-0.0998 -0.0266,-0.0201 -0.0532,-0.0368 -0.0867,-0.0502 -0.03,-0.0133 -0.0734,-0.0198 -0.1233,-0.0198 -0.1766,0 -0.2667,0.0865 -0.2667,0.2599 0,0.2132 0.1099,0.5466 0.3268,1.0001 0.22,0.4533 0.5766,0.9031 1.0732,1.3499 0.4966,0.4467 1.0434,0.6701 1.6367,0.6701 l 0.0201,0 c 0.8867,-0.0133 1.5234,-0.4734 1.9066,-1.3802 0.5066,0.9201 1.1634,1.3802 1.9667,1.3802 0.3934,0 0.7668,-0.1069 1.1166,-0.3201 0.35,-0.2134 0.5235,-0.5266 0.5235,-0.9399 0,-0.3067 -0.0966,-0.5602 -0.2868,-0.76 -0.19,-0.2001 -0.4034,-0.3002 -0.6466,-0.3002 -0.1766,0 -0.3266,0.0601 -0.4468,0.18 -0.1199,0.1202 -0.18,0.2736 -0.18,0.4601 0,0.2001 0.0635,0.39 0.19,0.57 0.1267,0.18 0.3035,0.3033 0.5334,0.3699 -0.2432,0.1869 -0.5167,0.2801 -0.8234,0.2801 -0.1667,0 -0.3365,-0.0334 -0.5032,-0.1035 -0.1667,-0.07 -0.3767,-0.2797 -0.6267,-0.6298 -0.2534,-0.3501 -0.4567,-0.8266 -0.61,-1.4267 -0.1134,-0.4635 -0.2299,-0.93 -0.3467,-1.4034 -0.1168,-0.4765 -0.2067,-0.83 -0.2634,-1.0667 -0.06,-0.2367 -0.1199,-0.4799 -0.18,-0.7299 -0.0632,-0.25 -0.1065,-0.4266 -0.1332,-0.5301 -0.0235,-0.1032 -0.0567,-0.2299 -0.0935,-0.3798 -0.0366,-0.1503 -0.0632,-0.2634 -0.0732,-0.3402 -0.0133,-0.0765 -0.0201,-0.1732 -0.0201,-0.29 0,-0.36 0.0868,-0.6565 0.26,-0.8901 0.1734,-0.2333 0.4166,-0.3498 0.7234,-0.3498 0.4501,0 0.8866,0.2166 1.3132,0.65 0.4235,0.4332 0.7467,0.9899 0.9735,1.6699 0.0133,0.0267 0.03,0.0666 0.0499,0.1202 0.0201,0.0533 0.0334,0.0933 0.0402,0.1199 0.007,0.0267 0.0164,0.0601 0.0366,0.1001 0.0198,0.0399 0.0399,0.07 0.0666,0.0898 0.0266,0.0202 0.0533,0.0366 0.0867,0.0502 0.0301,0.0133 0.0734,0.0198 0.1233,0.0198 0.1766,0 0.2668,-0.0867 0.2668,-0.2599 0,-0.2134 -0.11,-0.5468 -0.3269,-1.0001 -0.2165,-0.4532 -0.5731,-0.9034 -1.0732,-1.3498 -0.5,-0.4467 -1.04,-0.6701 -1.6166,-0.6701 -0.3736,0 -0.7435,0.1032 -1.1035,0.3101 -0.36,0.2066 -0.6366,0.5564 -0.8232,1.0499 -0.1734,-0.2534 -0.3234,-0.4566 -0.4501,-0.61 -0.1301,-0.1533 -0.3368,-0.3166 -0.6233,-0.4901 -0.2866,-0.1732 -0.5933,-0.2599 -0.9134,-0.2599 -0.4201,0 -0.7965,0.11 -1.1333,0.3299 -0.3367,0.22 -0.5068,0.5301 -0.5068,0.9301" /><g
       id="g38"><path
         id="path40"
         style="fill:#000000;fill-opacity:1;fill-rule:nonzero;stroke:none"
         d="m 320.9981,27.6378 -320.9981,0 0,1.4173 320.9981,0 0,-1.4173 z m 4.9862,0.7087 -9.9213,-4.252 0.1287,0.2656 0.1205,0.2659 0.1119,0.2656 0.1041,0.2659 0.0955,0.2656 0.087,0.2659 0.0788,0.2656 0.0706,0.2659 0.0624,0.2656 0.0541,0.2659 0.0456,0.2656 0.0375,0.2659 0.0289,0.2656 0.0207,0.2659 0.0124,0.2656 0.004,0.2659 -0.004,0.2658 -0.0124,0.2657 -0.0207,0.2658 -0.0289,0.2656 -0.0375,0.2659 -0.0456,0.2656 -0.0541,0.2659 -0.0624,0.2656 -0.0706,0.2659 -0.0788,0.2656 -0.087,0.2659 -0.0955,0.2656 -0.1041,0.2659 -0.1119,0.2656 -0.1205,0.2659 -0.1287,0.2656 0,0 9.9213,-4.2519 z" /></g><path
       id="path42"
       style="fill:#000000;fill-opacity:1;fill-rule:nonzero;stroke:none"
       d="m 159.266,14.1171 c 0,0.7254 -0.0482,1.4428 -0.144,2.1575 -0.0961,0.7146 -0.3308,1.3787 -0.7041,1.9972 -0.2665,0.4479 -0.6239,0.792 -1.0718,1.0372 -0.4482,0.2455 -0.9281,0.3683 -1.44,0.3683 -0.5122,0 -0.9921,-0.1228 -1.44,-0.3683 -0.4482,-0.2452 -0.8053,-0.5893 -1.0721,-1.0372 -0.3733,-0.6185 -0.608,-1.2826 -0.7041,-1.9972 -0.0958,-0.7147 -0.144,-1.4321 -0.144,-2.1575 0,-0.7038 0.0482,-1.4051 0.144,-2.1093 0.0961,-0.7012 0.3308,-1.3572 0.7041,-1.9652 0.2668,-0.4346 0.6239,-0.7733 1.0721,-1.0134 0.4479,-0.2398 0.9278,-0.36 1.44,-0.36 0.5119,0 0.9918,0.1202 1.44,0.36 0.4479,0.2401 0.8053,0.5788 1.0718,1.0134 0.3733,0.608 0.608,1.264 0.7041,1.9652 0.0958,0.7042 0.144,1.4055 0.144,2.1093 z m -1.328,0.2642 c 0,-0.3413 -0.003,-0.7041 -0.008,-1.0879 -0.005,-0.3841 -0.0187,-0.7575 -0.04,-1.1203 -0.0215,-0.3625 -0.0561,-0.7064 -0.104,-1.0318 -0.0482,-0.3254 -0.1148,-0.6001 -0.2001,-0.824 -0.1386,-0.3734 -0.3572,-0.6826 -0.6559,-0.9281 -0.2988,-0.2452 -0.6401,-0.3679 -1.0239,-0.3679 -0.3841,0 -0.7254,0.1227 -1.0242,0.3679 -0.2985,0.2455 -0.5173,0.5547 -0.6559,0.9281 -0.0853,0.2239 -0.152,0.4986 -0.2001,0.824 -0.0479,0.3254 -0.0825,0.6693 -0.1038,1.0318 -0.0215,0.3628 -0.0349,0.7362 -0.0402,1.1203 -0.005,0.3838 -0.008,0.7466 -0.008,1.0879 0,0.32 0.003,0.6534 0.008,0.9998 0.005,0.3466 0.0187,0.6882 0.0402,1.0241 0.0213,0.3359 0.0559,0.6534 0.1038,0.9519 0.0481,0.2988 0.1148,0.5547 0.2001,0.7682 0.1494,0.3413 0.3733,0.6264 0.6721,0.8558 0.2985,0.2293 0.6347,0.3441 1.008,0.3441 0.3733,0 0.7092,-0.1148 1.008,-0.3441 0.2985,-0.2294 0.5224,-0.5145 0.6718,-0.8558 0.0853,-0.2135 0.1519,-0.4694 0.2001,-0.7682 0.0479,-0.2985 0.0825,-0.616 0.104,-0.9519 0.0213,-0.3359 0.0346,-0.6775 0.04,-1.0241 0.005,-0.3464 0.008,-0.6798 0.008,-0.9998" /><path
       id="path44"
       style="fill:#fac864;fill-opacity:1;fill-rule:evenodd;stroke:#000000;stroke-width:0.56690001;stroke-linecap:butt;stroke-linejoin:miter;stroke-miterlimit:22.92558479;stroke-dasharray:none;stroke-opacity:1"
       d="m 99.2134,31.1811 c 1.5656,0 2.8347,-1.2691 2.8347,-2.8346 0,-1.5656 -1.2691,-2.8347 -2.8347,-2.8347 -1.5655,0 -2.8346,1.2691 -2.8346,2.8347 0,1.5655 1.2691,2.8346 2.8346,2.8346 z" /><path
       id="path46"
       style="fill:#fac864;fill-opacity:1;fill-rule:evenodd;stroke:#000000;stroke-width:0.56690001;stroke-linecap:butt;stroke-linejoin:miter;stroke-miterlimit:22.92558479;stroke-dasharray:none;stroke-opacity:1"
       d="m 212.5993,31.1811 c 1.5656,0 2.8346,-1.2691 2.8346,-2.8346 0,-1.5656 -1.269,-2.8347 -2.8346,-2.8347 -1.5656,0 -2.8347,1.2691 -2.8347,2.8347 0,1.5655 1.2691,2.8346 2.8347,2.8346 z" /><path
       id="path48"
       style="fill:#000000;fill-opacity:1;fill-rule:nonzero;stroke:none"
       d="m 94.9411,12.909 0,0.352 -7.9679,0 0,-0.352 7.9679,0 z" /><path
       id="path50"
       style="fill:#000000;fill-opacity:1;fill-rule:nonzero;stroke:none"
       d="m 96.6852,11.1331 c 0,1.1732 0.3892,2.2612 1.1705,3.2641 0.7815,1.0026 1.6268,1.5037 2.5307,1.5037 0.5519,0 1.0001,-0.3146 1.3385,-0.9439 0.1015,0.4054 0.3229,0.608 0.6614,0.608 0.136,0 0.248,-0.0428 0.3387,-0.1281 0.0907,-0.0853 0.1361,-0.1865 0.1361,-0.3039 0,-0.0345 -0.0533,-0.1148 -0.1602,-0.2401 l -1.008,-4.0371 C 101.5863,10.349 101.533,9.957 101.533,9.6823 c 0,-0.4399 0.144,-0.6613 0.4295,-0.6613 0.176,0 0.3384,0.104 0.4878,0.3121 0.1469,0.208 0.2614,0.424 0.3388,0.648 0.0745,0.2239 0.1573,0.496 0.2452,0.8161 0.0241,0.0853 0.0399,0.1491 0.0507,0.1919 0.04,0.1919 0.1094,0.288 0.2052,0.288 0.1202,0 0.1789,-0.0695 0.1789,-0.2081 -0.0213,-0.1278 -0.0507,-0.2905 -0.0907,-0.4878 -0.04,-0.1976 -0.1466,-0.4989 -0.3175,-0.904 -0.1706,-0.4054 -0.3625,-0.6883 -0.576,-0.8481 -0.1491,-0.1174 -0.3413,-0.1761 -0.5732,-0.1761 -0.3013,0 -0.5706,0.0907 -0.8107,0.2722 -0.2426,0.1811 -0.4053,0.464 -0.4906,0.8478 -0.6693,-0.7466 -1.3119,-1.12 -1.9279,-1.12 -0.6001,0 -1.0828,0.2294 -1.4482,0.688 -0.3651,0.4587 -0.5491,1.0562 -0.5491,1.7921 z m 1.1359,-0.7042 c 0,-0.3625 0.0694,-0.6879 0.2052,-0.9759 0.1361,-0.288 0.36,-0.432 0.6746,-0.432 0.3575,0 0.7229,0.1839 1.1016,0.5522 0.3787,0.3679 0.6347,0.6959 0.7704,0.9839 0.0162,0.0612 0.1681,0.6372 0.4536,1.7251 0.2852,1.0908 0.4266,1.6881 0.4266,1.7949 0,0.256 -0.0907,0.5627 -0.2693,0.9199 -0.1789,0.3574 -0.4507,0.536 -0.8215,0.536 -0.4507,0 -0.8986,-0.3254 -1.3413,-0.976 -0.3359,-0.4906 -0.6214,-1.1973 -0.8533,-2.12 -0.2318,-0.9227 -0.3466,-1.5919 -0.3466,-2.0081" /><path
       id="path52"
       style="fill:#000000;fill-opacity:1;fill-rule:nonzero;stroke:none"
       d="m 210.3276,11.1413 c 0,1.1733 0.3892,2.2612 1.1704,3.2641 0.7815,1.0026 1.6268,1.5038 2.5308,1.5038 0.5519,0 1.0001,-0.3147 1.3385,-0.944 0.1015,0.4054 0.3229,0.6081 0.6613,0.6081 0.1361,0 0.2481,-0.0428 0.3388,-0.1282 0.0907,-0.0853 0.136,-0.1865 0.136,-0.3038 0,-0.0346 -0.0533,-0.1148 -0.1601,-0.2401 l -1.008,-4.0371 c -0.1066,-0.5069 -0.1599,-0.8989 -0.1599,-1.1736 0,-0.4399 0.144,-0.6613 0.4295,-0.6613 0.176,0 0.3384,0.104 0.4878,0.3121 0.1468,0.2081 0.2613,0.4241 0.3387,0.648 0.0746,0.2239 0.1574,0.4961 0.2452,0.8161 0.0241,0.0853 0.04,0.1491 0.0508,0.1919 0.0399,0.1919 0.1094,0.288 0.2052,0.288 0.1202,0 0.1789,-0.0695 0.1789,-0.2081 -0.0213,-0.1278 -0.0508,-0.2905 -0.0907,-0.4878 -0.04,-0.1976 -0.1466,-0.4989 -0.3175,-0.904 -0.1707,-0.4053 -0.3626,-0.6882 -0.576,-0.8481 -0.1491,-0.1174 -0.3413,-0.176 -0.5732,-0.176 -0.3013,0 -0.5706,0.0907 -0.8107,0.2721 -0.2426,0.1811 -0.4054,0.464 -0.4907,0.8478 -0.6692,-0.7466 -1.3118,-1.1199 -1.9278,-1.1199 -0.6001,0 -1.0829,0.2293 -1.4482,0.6879 -0.3651,0.4587 -0.5491,1.0562 -0.5491,1.7921 z m 1.1358,-0.7041 c 0,-0.3626 0.0695,-0.688 0.2053,-0.976 0.136,-0.288 0.36,-0.432 0.6746,-0.432 0.3575,0 0.7228,0.184 1.1016,0.5522 0.3787,0.3679 0.6346,0.6959 0.7704,0.9839 0.0162,0.0612 0.1681,0.6372 0.4536,1.7252 0.2851,1.0907 0.4266,1.688 0.4266,1.7949 0,0.2559 -0.0907,0.5626 -0.2693,0.9198 -0.1789,0.3574 -0.4507,0.536 -0.8215,0.536 -0.4507,0 -0.8986,-0.3254 -1.3414,-0.9759 -0.3359,-0.4907 -0.6213,-1.1974 -0.8532,-2.1201 -0.2319,-0.9226 -0.3467,-1.5919 -0.3467,-2.008" /><path
       id="path54"
       style="fill:#000000;fill-opacity:1;fill-rule:nonzero;stroke:none"
       d="m 181.0845,47.2371 c 0,1.1733 0.3892,2.2612 1.1705,3.2641 0.7815,1.0026 1.6268,1.5038 2.5307,1.5038 0.5519,0 1.0001,-0.3147 1.3386,-0.944 0.1014,0.4054 0.3228,0.6081 0.6613,0.6081 0.136,0 0.248,-0.0428 0.3387,-0.1282 0.0907,-0.0853 0.1361,-0.1865 0.1361,-0.3038 0,-0.0346 -0.0533,-0.1148 -0.1602,-0.2401 l -1.008,-4.0371 c -0.1066,-0.5069 -0.1599,-0.8989 -0.1599,-1.1736 0,-0.4399 0.144,-0.6613 0.4295,-0.6613 0.176,0 0.3385,0.104 0.4878,0.3121 0.1469,0.2081 0.2614,0.4241 0.3388,0.648 0.0745,0.2239 0.1573,0.4961 0.2452,0.8161 0.0241,0.0853 0.0399,0.1491 0.0507,0.1919 0.04,0.1919 0.1094,0.288 0.2052,0.288 0.1202,0 0.1789,-0.0694 0.1789,-0.2081 -0.0213,-0.1278 -0.0507,-0.2905 -0.0907,-0.4878 -0.04,-0.1976 -0.1466,-0.4989 -0.3175,-0.904 -0.1706,-0.4053 -0.3625,-0.6882 -0.576,-0.8481 -0.1491,-0.1174 -0.3413,-0.176 -0.5731,-0.176 -0.3014,0 -0.5707,0.0907 -0.8108,0.2721 -0.2426,0.1811 -0.4053,0.464 -0.4906,0.8478 -0.6693,-0.7466 -1.3119,-1.1199 -1.9279,-1.1199 -0.6001,0 -1.0828,0.2293 -1.4482,0.6879 -0.3651,0.4587 -0.5491,1.0562 -0.5491,1.7921 z m 1.1359,-0.7041 c 0,-0.3626 0.0694,-0.688 0.2052,-0.976 0.1361,-0.288 0.36,-0.432 0.6747,-0.432 0.3574,0 0.7228,0.184 1.1015,0.5522 0.3787,0.3679 0.6347,0.6959 0.7705,0.9839 0.0161,0.0612 0.168,0.6372 0.4535,1.7252 0.2852,1.0907 0.4266,1.688 0.4266,1.7949 0,0.2559 -0.0907,0.5626 -0.2693,0.9198 -0.1788,0.3575 -0.4507,0.536 -0.8215,0.536 -0.4507,0 -0.8985,-0.3254 -1.3413,-0.9759 -0.3359,-0.4907 -0.6214,-1.1974 -0.8532,-2.1201 -0.2319,-0.9226 -0.3467,-1.5919 -0.3467,-2.008" /><path
       id="path56"
       style="fill:#000000;fill-opacity:1;fill-rule:nonzero;stroke:none"
       d="m 124.6844,47.2371 c 0,1.1733 0.3892,2.2612 1.1705,3.2641 0.7815,1.0026 1.6268,1.5038 2.5307,1.5038 0.5519,0 1.0001,-0.3147 1.3386,-0.944 0.1014,0.4054 0.3228,0.6081 0.6613,0.6081 0.136,0 0.248,-0.0428 0.3387,-0.1282 0.0907,-0.0853 0.1361,-0.1865 0.1361,-0.3038 0,-0.0346 -0.0533,-0.1148 -0.1602,-0.2401 l -1.008,-4.0371 c -0.1066,-0.5069 -0.1598,-0.8989 -0.1598,-1.1736 0,-0.4399 0.144,-0.6613 0.4294,-0.6613 0.176,0 0.3385,0.104 0.4878,0.3121 0.1469,0.2081 0.2614,0.4241 0.3388,0.648 0.0745,0.2239 0.1573,0.4961 0.2452,0.8161 0.0241,0.0853 0.0399,0.1491 0.0507,0.1919 0.04,0.1919 0.1094,0.288 0.2052,0.288 0.1202,0 0.1789,-0.0694 0.1789,-0.2081 -0.0212,-0.1278 -0.0507,-0.2905 -0.0907,-0.4878 -0.04,-0.1976 -0.1465,-0.4989 -0.3175,-0.904 -0.1706,-0.4053 -0.3625,-0.6882 -0.576,-0.8481 -0.1491,-0.1174 -0.3413,-0.176 -0.5731,-0.176 -0.3014,0 -0.5707,0.0907 -0.8107,0.2721 -0.2427,0.1811 -0.4054,0.464 -0.4907,0.8478 -0.6693,-0.7466 -1.3119,-1.1199 -1.9279,-1.1199 -0.6001,0 -1.0828,0.2293 -1.4482,0.6879 -0.3651,0.4587 -0.5491,1.0562 -0.5491,1.7921 z m 1.1359,-0.7041 c 0,-0.3626 0.0694,-0.688 0.2052,-0.976 0.1361,-0.288 0.36,-0.432 0.6747,-0.432 0.3574,0 0.7228,0.184 1.1015,0.5522 0.3787,0.3679 0.6347,0.6959 0.7705,0.9839 0.0161,0.0612 0.1681,0.6372 0.4535,1.7252 0.2852,1.0907 0.4266,1.688 0.4266,1.7949 0,0.2559 -0.0907,0.5626 -0.2693,0.9198 -0.1788,0.3575 -0.4507,0.536 -0.8215,0.536 -0.4507,0 -0.8985,-0.3254 -1.3413,-0.9759 -0.3359,-0.4907 -0.6214,-1.1974 -0.8532,-2.1201 -0.2319,-0.9226 -0.3467,-1.5919 -0.3467,-2.008" /><g
       id="g58"><path
         id="path60"
         style="fill:#fac864;fill-opacity:1;fill-rule:nonzero;stroke:none"
         d="m 99.2134,42.5197 9.9213,4.252 0,0 -0.1287,-0.2657 -0.1205,-0.2658 -0.1119,-0.2656 -0.1041,-0.2659 -0.0955,-0.2656 -0.087,-0.2659 -0.0788,-0.2656 -0.0706,-0.2659 -0.0624,-0.2656 -0.0541,-0.2659 -0.0456,-0.2656 -0.0375,-0.2659 -0.0289,-0.2656 -0.0207,-0.2659 -0.0124,-0.2656 -0.004,-0.2659 0.004,-0.2659 0.0124,-0.2656 0.0207,-0.2659 0.0289,-0.2656 0.0375,-0.2659 0.0456,-0.2656 0.0541,-0.2659 0.0624,-0.2656 0.0706,-0.2659 0.0788,-0.2656 0.087,-0.2659 0.0955,-0.2656 0.1041,-0.2659 0.1119,-0.2656 0.1205,-0.2659 0.1287,-0.2656 -9.9213,4.252 z m 51.7074,-0.7087 -46.7212,0 0,1.4173 46.7212,0 0,-1.4173 z m 4.9861,0.7087 -9.9212,-4.252 0.1287,0.2656 0.1204,0.2659 0.112,0.2656 0.104,0.2659 0.0956,0.2656 0.087,0.2659 0.0788,0.2656 0.0706,0.2659 0.0623,0.2656 0.0542,0.2659 0.0456,0.2656 0.0374,0.2659 0.0289,0.2656 0.0207,0.2659 0.0125,0.2656 0.004,0.2659 -0.004,0.2659 -0.0125,0.2656 -0.0207,0.2659 -0.0289,0.2656 -0.0374,0.2659 -0.0456,0.2656 -0.0542,0.2659 -0.0623,0.2656 -0.0706,0.2659 -0.0788,0.2656 -0.087,0.2659 -0.0956,0.2656 -0.104,0.2659 -0.112,0.2656 -0.1204,0.2658 -0.1287,0.2657 0,0 9.9212,-4.252 z" /></g><g
       id="g62"><path
         id="path64"
         style="fill:#fac864;fill-opacity:1;fill-rule:nonzero;stroke:none"
         d="m 155.9069,42.5197 9.9213,4.252 0,0 -0.1287,-0.2657 -0.1205,-0.2658 -0.1119,-0.2656 -0.1041,-0.2659 -0.0955,-0.2656 -0.087,-0.2659 -0.0788,-0.2656 -0.0706,-0.2659 -0.0624,-0.2656 -0.0541,-0.2659 -0.0457,-0.2656 -0.0374,-0.2659 -0.0289,-0.2656 -0.0207,-0.2659 -0.0125,-0.2656 -0.004,-0.2659 0.004,-0.2659 0.0125,-0.2656 0.0207,-0.2659 0.0289,-0.2656 0.0374,-0.2659 0.0457,-0.2656 0.0541,-0.2659 0.0624,-0.2656 0.0706,-0.2659 0.0788,-0.2656 0.087,-0.2659 0.0955,-0.2656 0.1041,-0.2659 0.1119,-0.2656 0.1205,-0.2659 0.1287,-0.2656 -9.9213,4.252 z m 51.7074,-0.7087 -46.7212,0 0,1.4173 46.7212,0 0,-1.4173 z m 4.9861,0.7087 -9.9213,-4.252 0.1287,0.2656 0.1205,0.2659 0.112,0.2656 0.104,0.2659 0.0955,0.2656 0.0871,0.2659 0.0788,0.2656 0.0706,0.2659 0.0623,0.2656 0.0542,0.2659 0.0456,0.2656 0.0374,0.2659 0.0289,0.2656 0.0207,0.2659 0.0125,0.2656 0.004,0.2659 -0.004,0.2659 -0.0125,0.2656 -0.0207,0.2659 -0.0289,0.2656 -0.0374,0.2659 -0.0456,0.2656 -0.0542,0.2659 -0.0623,0.2656 -0.0706,0.2659 -0.0788,0.2656 -0.0871,0.2659 -0.0955,0.2656 -0.104,0.2659 -0.112,0.2656 -0.1205,0.2658 -0.1287,0.2657 0,0 9.9213,-4.252 z" /></g></g></svg>